<svg width="52" height="52" viewBox="0 0 52 52" fill="none" xmlns="http://www.w3.org/2000/svg">
<path d="M39.0001 4.33333H13.0001C10.6102 4.33333 8.66675 6.27683 8.66675 8.66666V45.5C8.66675 46.0746 8.89502 46.6257 9.30135 47.0321C9.70768 47.4384 10.2588 47.6667 10.8334 47.6667H41.1667C41.7414 47.6667 42.2925 47.4384 42.6988 47.0321C43.1051 46.6257 43.3334 46.0746 43.3334 45.5V8.66666C43.3334 6.27683 41.3899 4.33333 39.0001 4.33333ZM39.0001 43.3333H13.0001V8.66666H39.0001V43.3333Z" fill="#AAAAAA"/>
<path d="M17.3333 13H23.8333V17.3333H17.3333V13ZM28.1666 13H34.6666V17.3333H28.1666V13ZM17.3333 21.6667H23.8333V26H17.3333V21.6667ZM28.1666 21.7338H34.6666V26H28.1666V21.7338ZM17.3333 30.3333H23.8333V34.6667H17.3333V30.3333ZM28.1666 30.3333H34.6666V34.6667H28.1666V30.3333Z" fill="#AAAAAA"/>
</svg>
