<svg width="80" height="80" viewBox="0 0 80 80" fill="none" xmlns="http://www.w3.org/2000/svg">
<path d="M53.672 47.8125L55.3712 24.8926C55.4634 23.8201 55.1307 22.7543 54.4447 21.9247C53.7588 21.0951 52.7744 20.5681 51.7037 20.4572C50.633 20.3464 49.5616 20.6604 48.7202 21.3318C47.8787 22.0032 47.3347 22.9782 47.2052 24.0469L45.8595 34.1406M32.1876 38.0469L30.795 29.6894C30.6209 28.6653 30.0573 27.7482 29.2224 27.1301C28.3874 26.512 27.3457 26.2408 26.3154 26.3733C25.285 26.5058 24.3458 27.0317 23.6944 27.8409C23.043 28.6501 22.7298 29.6799 22.8204 30.7148L24.3751 47.8125M40.0001 41.9531V39.0234C40.0001 37.9874 39.5885 36.9939 38.856 36.2613C38.1234 35.5287 37.1298 35.1172 36.0938 35.1172C35.0578 35.1172 34.0643 35.5287 33.3317 36.2613C32.5991 36.9939 32.1876 37.9874 32.1876 39.0234V45.8594" stroke="#3FBAFF" stroke-width="2.34375" stroke-linecap="round" stroke-linejoin="round"/>
<path d="M47.8125 41.9531V38.0469C47.8125 37.0109 47.4009 36.0173 46.6684 35.2847C45.9358 34.5522 44.9423 34.1406 43.9063 34.1406C42.8702 34.1406 41.8767 34.5522 41.1441 35.2847C40.4116 36.0173 40 37.0109 40 38.0469V41.9531" stroke="#3FBAFF" stroke-width="2.34375" stroke-linecap="round" stroke-linejoin="round"/>
<path d="M53.6719 47.8125C52.625 55.625 47.1133 59.5312 39.0234 59.5312C30.9336 59.5312 24.375 55.625 24.375 47.8125" stroke="#3FBAFF" stroke-width="2.34375"/>
<path d="M43.3047 49.7656H38.0469C37.0109 49.7656 36.0173 49.3541 35.2847 48.6215C34.5522 47.8889 34.1406 46.8954 34.1406 45.8594C34.1406 44.8234 34.5522 43.8298 35.2847 43.0972C36.0173 42.3647 37.0109 41.9531 38.0469 41.9531H45.8594C50.1758 41.9531 54.6484 45.8594 52.6953 51.7187" stroke="#3FBAFF" stroke-width="2.34375" stroke-linecap="round" stroke-linejoin="round"/>
</svg>
