<svg width="52" height="52" viewBox="0 0 52 52" fill="none" xmlns="http://www.w3.org/2000/svg">
<path d="M33.2935 10.7332C33.2935 8.11221 35.4211 6 38.0267 6C40.6322 6 42.7445 8.11221 42.7599 10.7332V20.3307C43.9798 20.6578 45.0578 21.3783 45.8266 22.3804C46.5954 23.3825 47.0121 24.6103 47.0121 25.8733C47.0121 27.1363 46.5954 28.3641 45.8266 29.3662C45.0578 30.3683 43.9798 31.0888 42.7599 31.4159V41.0288C42.7599 42.2841 42.2612 43.488 41.3735 44.3757C40.4859 45.2633 39.282 45.762 38.0267 45.762C36.7713 45.762 35.5674 45.2633 34.6798 44.3757C33.7921 43.488 33.2935 42.2841 33.2935 41.0288V40.6711L24.1508 36.1723C23.2069 35.7093 22.2058 35.3734 21.1737 35.1732C20.4315 35.0381 19.6786 34.97 18.9242 34.9697L18.9181 34.9543H16.3341V44.2326C16.3341 45.2656 15.5015 46.0981 14.4686 46.0981H10.5001C9.46708 46.0981 8.63453 45.2656 8.63453 44.2326V34.9543H6.66108C5.19024 34.9543 4 33.7979 4 32.3795V19.3825C4 17.9486 5.18716 16.7923 6.66262 16.7923H19.0661C20.8294 16.7672 22.5659 16.3568 24.1539 15.5898L33.2935 11.0924V10.7332ZM11.7181 34.9543V43.0146H13.2506V34.9543H11.7181ZM31.0579 15.7177L25.8406 18.2848L25.8298 18.2909C24.3004 19.0279 22.6538 19.5212 20.9594 19.7433V31.6441L21.1105 32.0403C22.754 32.2716 24.3574 32.765 25.8498 33.4973L31.0579 36.0597V15.7177Z" fill="#AAAAAA"/>
</svg>
