<svg width="52" height="52" viewBox="0 0 52 52" fill="none" xmlns="http://www.w3.org/2000/svg">
<path d="M45.4999 26H47.6666M40.0832 9.74999L38.9999 10.8333M4.33325 26H6.49992M25.9999 4.33333V6.49999M10.6794 10.6795L12.2113 12.2113M25.9999 26V39M15.1666 26C15.1666 23.1268 16.308 20.3713 18.3396 18.3397C20.3712 16.308 23.1267 15.1667 25.9999 15.1667V15.1667C28.8731 15.1667 31.6286 16.308 33.6602 18.3397C35.6919 20.3713 36.8332 23.1268 36.8332 26V39H15.1666V26ZM10.8333 43.3333C10.8333 42.1841 11.2898 41.0819 12.1025 40.2692C12.9151 39.4565 14.0173 39 15.1666 39H36.8332C37.9825 39 39.0847 39.4565 39.8974 40.2692C40.71 41.0819 41.1666 42.1841 41.1666 43.3333V47.6667H10.8333V43.3333Z" stroke="#AAAAAA" stroke-width="4.33333" stroke-linecap="round" stroke-linejoin="round"/>
</svg>
